<svg width="44" height="46" viewBox="0 0 44 46" fill="none" xmlns="http://www.w3.org/2000/svg">
<path d="M26.4451 11.5778L25.8636 9.81625C25.7755 9.53764 25.52 9.35789 25.238 9.35789C24.956 9.35789 24.7005 9.54663 24.6124 9.81625L24.0309 11.5778C23.6079 12.872 22.6651 13.9146 21.4315 14.4538L20.524 14.8493C20.2773 14.9571 20.1275 15.1998 20.1275 15.4694C20.1275 15.739 20.2861 15.9817 20.524 16.0895L21.4315 16.485C22.6563 17.0242 23.6079 18.0668 24.0309 19.361L24.6124 21.1225C24.7005 21.4012 24.956 21.5809 25.238 21.5809C25.52 21.5809 25.7755 21.3922 25.8636 21.1225L26.4451 19.361C26.8681 18.0668 27.8109 17.0242 29.0445 16.485L29.952 16.0895C30.1987 15.9817 30.3485 15.739 30.3485 15.4694C30.3485 15.1998 30.1899 14.9571 29.952 14.8493L29.0445 14.4538C27.8109 13.9235 26.8593 12.872 26.4451 11.5778Z" fill="#8C64FF"/>
<path d="M30.9389 25.4455L31.6702 25.7601C32.6218 26.1735 33.3443 26.9824 33.6704 27.98L34.1285 29.3911C34.2167 29.6697 34.4722 29.8494 34.7541 29.8494C35.0361 29.8494 35.2916 29.6607 35.3797 29.3911L35.8379 27.98C36.1639 26.9824 36.8953 26.1735 37.8381 25.7601L38.5694 25.4455C38.8161 25.3377 38.9659 25.095 38.9659 24.8254C38.9659 24.5558 38.8073 24.3131 38.5694 24.2053L37.8381 23.8907C36.8865 23.4773 36.1639 22.6684 35.8379 21.6708L35.3797 20.2597C35.2916 19.9811 35.0361 19.8014 34.7541 19.8014C34.4722 19.8014 34.2167 19.9901 34.1285 20.2597L33.6704 21.6708C33.3443 22.6684 32.613 23.4773 31.6702 23.8907L30.9389 24.2053C30.6922 24.3131 30.5424 24.5558 30.5424 24.8254C30.5424 25.095 30.6922 25.3377 30.9389 25.4455Z" fill="#8C64FF"/>
<path d="M33.3443 12.4586L33.8906 12.7012C34.5603 12.9888 35.0713 13.564 35.3004 14.2651L35.6441 15.3256C35.7322 15.6042 35.9877 15.784 36.2697 15.784C36.5516 15.784 36.8072 15.5952 36.8953 15.3256L37.2389 14.2651C37.468 13.564 37.9791 12.9888 38.6487 12.7012L39.195 12.4586C39.4417 12.3507 39.5915 12.1081 39.5915 11.8384C39.5915 11.5688 39.4329 11.3262 39.195 11.2183L38.6487 10.9756C37.9791 10.688 37.468 10.1128 37.2389 9.41181L36.8953 8.36027C36.8072 8.08166 36.5516 7.90191 36.2697 7.90191C35.9877 7.90191 35.7322 8.09065 35.6441 8.36027L35.3004 9.4208C35.0713 10.1218 34.5603 10.697 33.8906 10.9846L33.3443 11.2273C33.0976 11.3351 32.9478 11.5778 32.9478 11.8474C32.9478 12.1171 33.0976 12.3597 33.3443 12.4586Z" fill="#8C64FF"/>
<path d="M43.6799 29.5079C43.4244 29.3461 43.0896 29.3821 42.8693 29.5978C41.9001 30.5594 40.8163 31.4043 39.6268 32.0963C35.8644 34.3072 31.494 34.9004 27.2998 33.75C23.1057 32.6086 19.6076 29.8584 17.4312 26.0297C15.8717 23.2796 15.1315 20.1609 15.2725 17.0063C15.2725 17.0063 15.6778 11.2992 19.9425 6.09542C20.9557 5.04388 22.1188 4.13614 23.3788 3.39018C24.5595 2.68915 25.8195 2.1499 27.1236 1.78141C27.4144 1.70052 27.617 1.42191 27.6082 1.10735C27.5994 0.792784 27.3791 0.532146 27.0796 0.469233C21.6783 -0.663194 16.0655 0.271508 11.2898 3.0846C6.07356 6.15833 2.33759 11.1194 0.778001 17.0512C-0.781588 22.983 0.0202346 29.1844 3.03368 34.505C3.53592 35.3857 4.09103 36.2306 4.69019 37.0305V37.0394C4.69019 37.0394 5.97663 39.1605 8.99008 41.3804C11.7656 43.5105 14.9553 44.9485 18.3564 45.6045H18.3652C18.6736 45.6764 18.9644 45.7214 19.2287 45.7484C19.7486 45.8292 20.2685 45.8922 20.7883 45.9281C21.3963 45.982 21.9955 46 22.6034 46C26.5421 46 30.4014 44.9485 33.8554 42.9173C38.6311 40.1042 42.2261 35.6104 43.9707 30.2718C44.0588 29.9932 43.9443 29.6697 43.6799 29.5079Z" fill="#8C64FF"/>
</svg>
