<svg width="44" height="46" viewBox="0 0 44 46" fill="none" xmlns="http://www.w3.org/2000/svg">
<path d="M43.6898 29.4936C43.4312 29.3285 43.0953 29.3653 42.8771 29.5826C41.9107 30.5451 40.8204 31.3863 39.6365 32.0831C35.8774 34.2961 31.4979 34.8843 27.3046 33.7386C23.1114 32.5933 19.6068 29.8516 17.4364 26.0189C15.8802 23.2712 15.1321 20.1516 15.2728 16.9976C15.4099 13.9255 16.3757 10.9594 18.0657 8.42C18.2707 8.11201 18.192 7.69297 17.8899 7.48408C17.5879 7.27527 17.1768 7.35541 16.9718 7.66332C15.1446 10.4088 14.1004 13.6153 13.9521 16.9363C13.7998 20.348 14.6088 23.7216 16.2914 26.6928C18.6384 30.8373 22.4281 33.8018 26.9623 35.0404C31.4968 36.279 36.2326 35.6433 40.2975 33.2502C40.796 32.9568 41.2792 32.6396 41.7452 32.3002C39.9077 36.2418 36.9348 39.5411 33.187 41.7477C29.4389 43.9538 25.1866 44.9342 20.8893 44.5824C16.6907 44.2388 12.7283 42.6594 9.43059 40.0146C9.14372 39.7846 8.72809 39.835 8.50238 40.1277C8.27668 40.4201 8.32629 40.8438 8.61317 41.0738C12.1161 43.8831 16.3245 45.5608 20.7835 45.9258C21.3896 45.9754 21.9947 46 22.5979 46C26.5389 46 30.3952 44.9471 33.848 42.9148C38.6288 40.1 42.222 35.6121 43.9659 30.2777C44.0626 29.9827 43.9484 29.6587 43.6898 29.4936Z" fill="#AAAAAA"/>
<path d="M11.9498 4.2489C15.6982 2.04301 19.9866 1.06845 24.254 1.41696C23.733 1.65847 23.2223 1.92612 22.724 2.2192C21.3561 3.0244 20.105 4.00776 19.0053 5.14224C18.7486 5.40684 18.7511 5.83352 19.0108 6.09515C19.2704 6.3566 19.6889 6.35408 19.9455 6.08949C20.9622 5.04072 22.1195 4.13121 23.3848 3.38638C24.5689 2.6899 25.8287 2.14849 27.1292 1.77689C27.4229 1.69288 27.6223 1.4149 27.6113 1.10412C27.6005 0.793253 27.3823 0.530275 27.0834 0.467922C21.6796 -0.660542 16.0703 0.267925 11.2888 3.08181C6.07044 6.15301 2.33768 11.1122 0.778267 17.0458C-0.781148 22.9792 0.0192705 29.1769 3.03208 34.4968C3.93649 36.0938 5.02352 37.5744 6.26319 38.8974C6.3931 39.036 6.56698 39.1058 6.74122 39.1058C6.90532 39.1058 7.06969 39.0439 7.19766 38.9193C7.4617 38.6622 7.47122 38.2356 7.21907 37.9665C6.0522 36.7212 5.02863 35.327 4.17692 33.8229C1.34064 28.8147 0.587196 22.9802 2.05513 17.3945C3.52324 11.8087 7.03726 7.14014 11.9498 4.2489Z" fill="#AAAAAA"/>
<path d="M27.3596 14.2098C27.1558 14.5186 27.236 14.9372 27.5388 15.145C27.7077 15.2609 27.8836 15.3683 28.065 15.4667C26.757 16.176 25.7463 17.3589 25.2389 18.787C24.7324 17.3592 23.7214 16.1761 22.4126 15.4665C23.7214 14.7568 24.7325 13.5736 25.239 12.1457C25.2758 12.249 25.3151 12.3508 25.3563 12.4497C25.4991 12.7922 25.887 12.9521 26.2231 12.8065C26.5591 12.6611 26.7157 12.2655 26.5731 11.9229C26.5252 11.8081 26.4825 11.693 26.4428 11.5727L25.8664 9.80902C25.7764 9.53391 25.5239 9.3482 25.2394 9.34811C25.2394 9.34811 25.2394 9.34811 25.2393 9.34811C24.9549 9.34811 24.7023 9.53355 24.6123 9.80866L24.0348 11.5727C23.6129 12.8641 22.6665 13.9126 21.4385 14.4494L20.5281 14.8474C20.2851 14.9536 20.1276 15.1972 20.1276 15.4667C20.1276 15.7362 20.2851 15.9798 20.5281 16.086L21.4386 16.4841C22.6669 17.0209 23.6131 18.0694 24.035 19.3611L24.6123 21.1247C24.7023 21.3998 24.9549 21.5853 25.2393 21.5853H25.2394C25.5239 21.5852 25.7764 21.3996 25.8664 21.1244L26.4427 19.361C26.8654 18.0691 27.8118 17.0205 29.0389 16.4842L29.9502 16.0861C30.1933 15.98 30.3509 15.7363 30.3509 15.4667C30.3509 15.1971 30.1933 14.9534 29.9502 14.8473L29.0388 14.4492C28.771 14.3323 28.5147 14.1903 28.277 14.0272C27.9743 13.8193 27.5636 13.901 27.3596 14.2098Z" fill="#AAAAAA"/>
<path d="M30.9428 25.4326L31.6715 25.751C32.6189 26.1649 33.3493 26.9741 33.6752 27.971L34.1367 29.3822C34.2267 29.6573 34.4792 29.8429 34.7637 29.8429C35.0483 29.8429 35.3008 29.6574 35.3908 29.3821L35.8522 27.971C36.1782 26.9741 36.9084 26.1649 37.8558 25.751L38.5846 25.4326C38.8277 25.3264 38.9853 25.0827 38.9853 24.8132C38.9853 24.5436 38.8277 24.3 38.5846 24.1938L37.8558 23.8754C36.9084 23.4615 36.1781 22.6523 35.8521 21.6554L35.3907 20.2442C35.3007 19.9691 35.0481 19.7835 34.7636 19.7835C34.4792 19.7835 34.2266 19.9691 34.1366 20.2442L33.6751 21.6555C33.3492 22.6523 32.6189 23.4615 31.6715 23.8754L30.9427 24.1938C30.6996 24.3 30.542 24.5436 30.542 24.8132C30.542 25.0827 30.6997 25.3264 30.9428 25.4326ZM34.7637 22.5191C35.1779 23.4768 35.8757 24.2792 36.7554 24.8132C35.8758 25.3471 35.178 26.1495 34.7637 27.1073C34.3496 26.1495 33.6517 25.3471 32.772 24.8132C33.6517 24.2792 34.3496 23.4768 34.7637 22.5191Z" fill="#AAAAAA"/>
<path d="M33.3461 12.456L33.8928 12.6948C34.56 12.9862 35.0743 13.556 35.3039 14.2581L35.65 15.3165C35.74 15.5916 35.9926 15.7772 36.2771 15.7772C36.5616 15.7772 36.8141 15.5917 36.9041 15.3164L37.2501 14.2581C37.4797 13.556 37.994 12.9862 38.6612 12.6948L39.2078 12.456C39.4508 12.3498 39.6084 12.1061 39.6084 11.8366C39.6084 11.567 39.4508 11.3234 39.2078 11.2172L38.6612 10.9784C37.994 10.6868 37.4796 10.1169 37.2501 9.41504L36.9041 8.35666C36.8141 8.08146 36.5616 7.89584 36.2771 7.89584C35.9926 7.89584 35.74 8.08137 35.65 8.35657L35.3039 9.41495C35.0744 10.1169 34.5601 10.6868 33.8928 10.9784L33.3462 11.2172C33.1032 11.3234 32.9457 11.567 32.9457 11.8366C32.9457 12.1061 33.1031 12.3498 33.3461 12.456ZM36.277 10.4954C36.566 11.0301 36.9732 11.4896 37.4653 11.8366C36.9732 12.1835 36.566 12.6428 36.2771 13.1776C35.9881 12.6428 35.5808 12.1835 35.0888 11.8366C35.5807 11.4897 35.9881 11.0301 36.277 10.4954Z" fill="#AAAAAA"/>
</svg>
