<svg width="53" height="53" viewBox="0 0 53 53" fill="none" xmlns="http://www.w3.org/2000/svg">
<path d="M52.6377 25.6876L47.317 20.9164L49.5426 14.1271C49.6357 13.8373 49.6047 13.5062 49.4494 13.2371C49.2941 12.968 49.0354 12.7817 48.7248 12.7196L41.7375 11.2603L41.5098 10.1632L40.2779 4.26401C40.2158 3.96387 40.0191 3.69479 39.7604 3.53954C39.4912 3.3843 39.1703 3.35325 38.8701 3.4464L32.0795 5.67155L27.3074 0.362234C27.1107 0.134544 26.8105 0 26.5 0C26.1895 0 25.8893 0.134544 25.6926 0.362234L20.9205 5.6819L14.1299 3.45675C13.84 3.3636 13.5088 3.39465 13.2396 3.54989C12.9705 3.70514 12.7842 3.96387 12.7221 4.27436L11.2625 11.2603L4.2752 12.7196C3.975 12.7817 3.70586 12.9783 3.55059 13.2371C3.39531 13.5062 3.36426 13.827 3.45742 14.1271L5.68301 20.9164L0.362305 25.6876C0.13457 25.8842 0 26.1843 0 26.4948C0 26.8053 0.13457 27.1054 0.362305 27.3021L5.68301 32.0732L3.45742 38.8625C3.36426 39.1523 3.39531 39.4835 3.55059 39.7526C3.70586 40.0217 3.96465 40.208 4.2752 40.2701L11.2625 41.7294L12.7221 48.7256C12.7842 49.0258 12.9809 49.2949 13.2396 49.4501C13.5088 49.6054 13.8297 49.6364 14.1299 49.5433L20.9205 47.3181L25.6926 52.6378C25.8996 52.8655 26.1998 53 26.5 53C26.8002 53 27.1107 52.8655 27.3074 52.6378L32.0795 47.3181L38.8701 49.5433C39.16 49.6364 39.4912 49.6054 39.7604 49.4501C40.0295 49.2949 40.2158 49.0361 40.2779 48.7256L41.7375 41.7397L48.7248 40.2804C49.025 40.2183 49.2941 40.0217 49.4494 39.7629C49.6047 39.4939 49.6357 39.173 49.5426 38.8729L47.317 32.0836L52.6377 27.3124C52.8654 27.1054 53 26.8053 53 26.4948C53 26.1843 52.8654 25.8842 52.6377 25.6876ZM26.5 43.437C20.7031 43.437 15.3721 40.5185 12.2252 35.6335C11.9975 35.2712 12.101 34.7952 12.4633 34.5571C12.8256 34.3294 13.3018 34.4329 13.5398 34.7952C16.3865 39.2351 21.2414 41.8846 26.5 41.8846C34.9883 41.8846 41.8928 34.9815 41.8928 26.4948C41.8928 18.0082 34.9883 11.1051 26.5 11.1051C18.0117 11.1051 11.1072 18.0082 11.1072 26.4948C11.1072 28.2956 11.4178 30.0654 12.0285 31.742C12.1734 32.1457 11.9664 32.5907 11.5627 32.7356C11.159 32.8805 10.7139 32.6735 10.5689 32.2699C9.89609 30.4173 9.55449 28.4819 9.55449 26.4948C9.55449 17.1492 17.1525 9.55263 26.5 9.55263C35.8475 9.55263 43.4455 17.1492 43.4455 26.4948C43.4455 35.8405 35.8475 43.437 26.5 43.437ZM20.2373 24.6526V22.6965C20.2373 22.2722 20.5893 21.9203 21.0137 21.9203C21.4381 21.9203 21.79 22.2722 21.79 22.6965V24.6526C21.79 25.0769 21.4381 25.4288 21.0137 25.4288C20.5893 25.4288 20.2373 25.0769 20.2373 24.6526ZM22.6492 30.8727C23.0529 30.7381 23.498 30.9555 23.6326 31.3591C24.0467 32.5907 25.1957 33.4187 26.5 33.4187C27.8043 33.4187 28.9533 32.5907 29.3674 31.3591C29.502 30.9555 29.9471 30.7381 30.3508 30.8727C30.7545 31.0072 30.9719 31.4523 30.8373 31.8559C30.2162 33.7188 28.4668 34.9815 26.5 34.9815C24.5332 34.9815 22.7838 33.7292 22.1627 31.8559C22.0281 31.4523 22.2455 31.0176 22.6492 30.8727ZM31.2203 24.6526V22.6965C31.2203 22.2722 31.5723 21.9203 31.9967 21.9203C32.4211 21.9203 32.773 22.2722 32.773 22.6965V24.6526C32.773 25.0769 32.4211 25.4288 31.9967 25.4288C31.5619 25.4288 31.2203 25.0769 31.2203 24.6526Z" fill="#FF6464"/>
</svg>
