<svg width="53" height="53" viewBox="0 0 53 53" fill="none" xmlns="http://www.w3.org/2000/svg">
<path d="M13.5347 34.8101C13.3033 34.4497 12.8234 34.3453 12.4631 34.5767C12.1026 34.8082 11.9982 35.288 12.2296 35.6484C15.3672 40.5329 20.7018 43.449 26.5 43.449C35.8456 43.449 43.4489 35.8457 43.4489 26.5001C43.4489 17.1544 35.8456 9.55109 26.5 9.55109C17.1543 9.55109 9.55106 17.1543 9.55106 26.5001C9.55106 28.4837 9.8908 30.427 10.5607 32.2757C10.7068 32.6784 11.1514 32.8865 11.5542 32.7406C11.9569 32.5947 12.165 32.1498 12.0191 31.7472C11.4106 30.0684 11.1021 28.3031 11.1021 26.5001C11.1021 18.0097 18.0095 11.1023 26.4998 11.1023C34.9903 11.1023 41.8977 18.0097 41.8977 26.5001C41.8977 34.9904 34.9904 41.8978 26.5 41.8978C21.2324 41.8978 16.3856 39.2482 13.5347 34.8101Z" fill="#AAAAAA"/>
<path d="M52.6372 25.6876L47.3197 20.9197L49.5437 14.1322C49.6403 13.8377 49.6067 13.5148 49.4516 13.2465C49.2965 12.9781 49.0335 12.7877 48.7301 12.7243L41.7377 11.2622L41.509 10.1678C41.4212 9.7485 41.0096 9.47988 40.5911 9.56735C40.1718 9.65502 39.9029 10.0659 39.9905 10.4852L40.2811 11.8747C40.37 12.2989 40.7016 12.6304 41.1257 12.719L47.9096 14.1374L45.7522 20.7218C45.6174 21.1328 45.7384 21.585 46.0605 21.8741L51.2196 26.5001L46.0605 31.1259C45.7384 31.4148 45.6173 31.867 45.7521 32.2781L47.9095 38.8626L41.1255 40.281C40.7011 40.3697 40.3696 40.7014 40.2809 41.1258L38.8624 47.9097L32.278 45.7522C31.8669 45.6175 31.4143 45.7386 31.1258 46.0607L26.5 51.2199L21.8742 46.0608C21.5853 45.7387 21.1329 45.6176 20.7219 45.7523L14.1374 47.9098L12.719 41.1259C12.6303 40.7014 12.2987 40.3697 11.8743 40.281L5.09037 38.8626L7.24784 32.2782C7.38262 31.867 7.2615 31.4147 6.93936 31.1259L1.78015 26.5001L6.93926 21.8742C7.2614 21.5854 7.38251 21.1332 7.24774 20.722L5.09027 14.1375L11.8742 12.7191C12.2987 12.6304 12.6303 12.2987 12.719 11.8743L14.1374 5.09039L20.7218 7.24787C21.1333 7.38265 21.5853 7.26153 21.8742 6.93939L26.5 1.78016L31.1258 6.93949C31.4148 7.26164 31.8672 7.38275 32.278 7.24776L38.8626 5.09029L39.2548 6.96744C39.3426 7.38679 39.7545 7.65582 40.1727 7.56794C40.592 7.48026 40.8609 7.0693 40.7733 6.65006L40.2758 4.27003C40.2123 3.96652 40.0221 3.70359 39.7537 3.54842C39.4854 3.39335 39.1625 3.35971 38.8679 3.45629L32.0803 5.68033L27.3124 0.362719C27.1057 0.13219 26.8096 0 26.5 0C26.1903 0 25.8942 0.13219 25.6875 0.362719L20.9196 5.68033L14.1321 3.45629C13.8377 3.35981 13.5148 3.39335 13.2465 3.54842C12.978 3.70349 12.7878 3.96642 12.7242 4.26982L11.2623 11.2622L4.2698 12.7242C3.9664 12.7877 3.70337 12.978 3.5483 13.2464C3.39324 13.5147 3.3597 13.8376 3.45617 14.1321L5.6802 20.9196L0.362615 25.6876C0.132189 25.8943 0 26.1904 0 26.5001C0 26.8097 0.132189 27.1058 0.362718 27.3125L5.68031 32.0804L3.45628 38.8679C3.3597 39.1624 3.39334 39.4853 3.54841 39.7536C3.70347 40.022 3.9664 40.2123 4.26991 40.2758L11.2623 41.7378L12.7242 48.7303C12.7878 49.0337 12.978 49.2967 13.2465 49.4517C13.5149 49.6068 13.8376 49.6403 14.1321 49.5438L20.9196 47.3198L25.6876 52.6374C25.8943 52.8678 26.1903 53 26.5 53C26.8096 53 27.1057 52.8678 27.3124 52.6373L32.0804 47.3197L38.8677 49.5437C39.1624 49.6402 39.4852 49.6066 39.7535 49.4516C40.0219 49.2965 40.2122 49.0335 40.2756 48.7302L41.7377 41.7378L48.7302 40.2757C49.0336 40.2123 49.2965 40.0219 49.4516 39.7536C49.6067 39.4852 49.6403 39.1624 49.5437 38.8679L47.3198 32.0804L52.6371 27.3127C52.8677 27.1059 53 26.8098 53 26.5001C53 26.1903 52.8676 25.8942 52.6372 25.6876Z" fill="#AAAAAA"/>
<path d="M21.7834 24.6534V22.6984C21.7834 22.2701 21.4361 21.9229 21.0078 21.9229C20.5796 21.9229 20.2322 22.2701 20.2322 22.6984V24.6534C20.2322 25.0818 20.5795 25.429 21.0078 25.429C21.4362 25.429 21.7834 25.0818 21.7834 24.6534Z" fill="#AAAAAA"/>
<path d="M32.7677 24.6534V22.6984C32.7677 22.2701 32.4205 21.9229 31.9921 21.9229C31.5636 21.9229 31.2165 22.2701 31.2165 22.6984V24.6534C31.2165 25.0818 31.5637 25.429 31.9921 25.429C32.4204 25.429 32.7677 25.0818 32.7677 24.6534Z" fill="#AAAAAA"/>
<path d="M26.5 34.9874C28.4702 34.9874 30.2138 33.7328 30.8386 31.8655C30.9745 31.4593 30.7554 31.0198 30.3492 30.8838C29.9434 30.7479 29.5035 30.967 29.3675 31.3733C28.9546 32.6072 27.8022 33.4362 26.4998 33.4362C25.1974 33.4362 24.045 32.6071 23.6323 31.3731C23.4963 30.9669 23.0568 30.7477 22.6506 30.8835C22.2444 31.0194 22.0253 31.4589 22.1611 31.8652C22.786 33.7327 24.5296 34.9874 26.5 34.9874Z" fill="#AAAAAA"/>
</svg>
